<svg xmlns="http://www.w3.org/2000/svg" width="577" height="88" viewBox="0 0 577 88" fill="none">
    <path fill-rule="evenodd" clip-rule="evenodd" d="M42.24 88C22.3279 88 12.3718 88 6.18591 81.8141C-5.45447e-07 75.6282 -9.84393e-07 65.672 -1.86228e-06 45.7598L-2.01747e-06 42.2398C-2.89536e-06 22.3276 -3.3343e-06 12.3715 6.1859 6.18556C12.3718 7.53081e-06 22.3279 7.09933e-06 42.2399 6.23638e-06L42.24 6.23638e-06L45.76 6.08383e-06L45.76 6.08383e-06C65.6721 5.22087e-06 75.6282 4.7894e-06 81.8141 6.18555C88 12.3714 88 22.3276 88 42.2398L88 45.7598C88 65.672 88 75.6282 81.8141 81.8141C75.6282 88 65.6721 88 45.76 88L42.24 88Z" fill="#0077FF"/>
    <path d="M50.8869 54.2311C48.516 53.6388 46.8535 51.5179 46.8535 49.0854L46.8535 20.4275C46.8535 17.6646 49.4643 15.6383 52.1573 16.311L69.2113 20.5712C71.5823 21.1634 73.2448 23.2843 73.2448 25.7168L73.2448 54.3747C73.2448 57.1376 70.634 59.164 67.941 58.4913L50.8869 54.2311Z" fill="white"/>
    <path d="M18.7893 67.4269C16.4183 66.8346 14.7559 64.7137 14.7559 62.2812L14.7559 33.6233C14.7559 30.8604 17.3666 28.8341 20.0596 29.5068L37.1137 33.767C39.4846 34.3592 41.1471 36.4801 41.1471 38.9126L41.1471 67.5705C41.1471 70.3334 38.5363 72.3598 35.8433 71.687L18.7893 67.4269Z" fill="white"/>
    <path d="M34.8381 60.8292C32.4671 60.2369 30.8047 58.116 30.8047 55.6835L30.8047 27.0257C30.8047 24.2628 33.4155 22.2364 36.1085 22.9091L53.1625 27.1693C55.5335 27.7616 57.1959 29.8825 57.1959 32.315L57.1959 60.9728C57.1959 63.7358 54.5852 65.7621 51.8921 65.0894L34.8381 60.8292Z" fill="white"/>
    <path d="M45.9999 63.625V63.625C45.2531 63.4348 44.7216 62.7744 44.6955 62.0042L43.9536 40.1183C43.739 37.2217 41.5888 34.918 39.3419 34.2396C39.2157 34.2015 39.081 34.2528 39.0063 34.3613V34.3613C38.9304 34.4716 38.9597 34.6243 39.0656 34.7063C39.6205 35.1358 41.1476 36.5375 41.1476 38.9551L41.1431 62.3942L45.9999 63.625Z" fill="#2B71F6"/>
    <path d="M62.0528 57.0208V57.0208C61.3066 56.8341 60.7744 56.1757 60.7484 55.4069L60.0063 33.5226C59.7917 30.626 57.6416 28.3223 55.3946 27.6439C55.2685 27.6058 55.1338 27.6571 55.0591 27.7656V27.7656C54.9831 27.8759 55.0125 28.0286 55.1184 28.1106C55.6732 28.5401 57.2004 29.9418 57.2004 32.3594L57.1959 55.8065L62.0528 57.0208Z" fill="#2B71F6"/>
    <path d="M138.659 50.5561C145.323 48.8571 149.702 43.7602 149.702 37.0902C149.702 28.847 143.101 23.058 133.835 23.058H117.334V67.4199H124.95V51.1224H130.345L142.149 67.4199H151.098L138.659 50.5561ZM133.835 29.9797C138.595 29.9797 141.896 32.8742 141.896 37.0902C141.896 41.3061 138.595 44.2007 133.835 44.2007H124.95V29.9797H133.835Z" fill="black"/>
    <path d="M168.239 68.0491C172.237 68.0491 175.918 65.9726 178.013 62.5117L179.472 67.4199H184.931V34.699H177.632V53.6394C177.632 58.2958 174.522 61.5679 170.27 61.5679C166.081 61.5679 163.161 58.2958 163.161 53.6394V34.699H155.863V54.4574C155.863 62.323 161.194 68.0491 168.239 68.0491Z" fill="black"/>
    <path d="M208.223 68.0491C216.664 68.0491 223.646 63.2668 223.646 55.3383C223.646 46.4659 216.347 43.886 210.064 41.7466C205.177 40.1106 200.925 38.6004 200.925 34.6361C200.925 31.1752 204.161 29.3504 207.969 29.3504C211.968 29.3504 214.824 31.4269 216.411 34.9507L223.646 33.7552C221.361 26.8334 215.585 22.4287 207.716 22.4287C199.592 22.4287 193.118 27.0851 193.118 35.0137C193.118 43.949 200.417 46.403 206.7 48.4795C211.524 50.0527 215.839 51.5628 215.839 55.59C215.839 59.1138 212.603 61.1274 208.287 61.1274C203.336 61.1274 200.671 58.7992 198.323 54.5832L190.96 55.8417C193.118 63.3298 199.973 68.0491 208.223 68.0491Z" fill="black"/>
    <path d="M243.501 61.1274C241.026 61.1274 239.82 59.9318 239.82 57.4778V40.9915H249.657V34.699H239.82V25.2603H234.362L232.521 34.699H227.127V40.9915H232.521V57.4778C232.521 63.8961 236.266 67.4199 243.501 67.4199H249.657L250.292 61.1274H243.501Z" fill="black"/>
    <path d="M271.149 68.0491C281.494 68.0491 288.792 61.0016 288.792 51.0595C288.792 41.1173 281.494 34.0698 271.149 34.0698C260.804 34.0698 253.505 41.1173 253.505 51.0595C253.505 61.0016 260.804 68.0491 271.149 68.0491ZM271.149 61.442C265.183 61.442 261.121 57.2261 261.121 51.0595C261.121 44.8928 265.183 40.6769 271.149 40.6769C277.115 40.6769 281.176 44.8928 281.176 51.0595C281.176 57.2261 277.115 61.442 271.149 61.442Z" fill="black"/>
    <path d="M302.436 67.4199V48.102C302.436 43.949 304.467 41.6207 308.91 41.6207H313.099L312.464 34.699H311.068C307.196 34.699 304.213 35.7687 301.992 39.4184L300.596 34.699H295.138V67.4199H302.436Z" fill="black"/>
    <path d="M349.012 50.6819C349.012 41.2432 341.904 34.0698 331.876 34.0698C321.849 34.0698 314.74 41.1803 314.74 51.0595C314.74 60.9386 321.849 68.0491 331.876 68.0491C338.731 68.0491 345.204 64.84 347.68 58.6104L340.825 57.4778C339.239 59.806 336.192 61.442 332.321 61.442C326.736 61.442 323.055 58.0441 322.356 53.0101H348.885C348.949 52.3179 349.012 51.5628 349.012 50.6819ZM331.876 40.3623C336.446 40.3623 339.873 43.2568 341.079 47.3469H322.801C324.007 43.1309 327.434 40.3623 331.876 40.3623Z" fill="black"/>

</svg>